<svg width="52" height="52" viewBox="0 0 52 52" fill="none" xmlns="http://www.w3.org/2000/svg">
<circle cx="26" cy="26" r="26" fill="white"/>
<path d="M36.6066 27.1611C34.9729 25.7997 33.0283 24.7918 30.9066 24.1817C33.179 22.8775 34.6719 20.6947 34.6719 18.2266C34.6719 14.2418 30.7817 11 26 11C21.2183 11 17.3281 14.2418 17.3281 18.2266C17.3281 20.6947 18.821 22.8775 21.0935 24.1817C18.9718 24.7918 17.0272 25.7997 15.3934 27.1611C12.5603 29.5221 11 32.6611 11 36H13.3438C13.3438 30.1844 19.0213 25.4531 26 25.4531C32.9787 25.4531 38.6562 30.1844 38.6562 36H41C41 32.6611 39.4397 29.5221 36.6066 27.1611ZM26 23.5C22.5107 23.5 19.6719 21.1344 19.6719 18.2266C19.6719 15.3187 22.5107 12.9531 26 12.9531C29.4893 12.9531 32.3281 15.3187 32.3281 18.2266C32.3281 21.1344 29.4893 23.5 26 23.5Z" fill="#2E266F"/>
<circle cx="43.5" cy="7.5" r="7.5" fill="#31A24C"/>
</svg>
